<?xml version="1.0" encoding="UTF-8"?>
<svg width="180px" height="40px" viewBox="0 0 180 40" version="1.1" xmlns="http://www.w3.org/2000/svg" xmlns:xlink="http://www.w3.org/1999/xlink">
    <title>georepublic-logo</title>
    <g id="Page-1" stroke="none" stroke-width="1" fill="none" fill-rule="evenodd">
        <g id="georepublic-logo" fill="#00B265">
            <path d="M74.444,39.017 L78.369,27.077 C76.793,26.927 67.367,27.485 66.108,26.637 C65.488,26.334 64.998,25.821 64.732,25.191 C64.334,24.324 64.198,23.362 64.341,22.421 C64.731,19.972 65.834,17.688 67.515,15.845 C69.285,14.089 71.325,12.912 73.735,12.858 C76.428,12.816 78.839,14.798 77.657,17.584 C76.767,20.178 73.635,22.217 71.185,23.927 L79.405,23.927 C80.531,20.561 81.055,17.191 80.195,13.885 L83.282,13.228 C83.636,14.747 83.836,16.297 83.877,17.855 C86.181,15.555 89.197,13.001 92.682,13.592 C95.292,13.937 97.233,16.142 97.213,18.739 C97.213,20.583 96.174,22.418 95.126,23.927 L99.229,23.927 C98.533,22.533 101.818,14.035 101.883,13.467 L105.226,13.467 L102.43,22.047 C102.384,22.172 102.336,22.303 102.294,22.431 C102.277,22.877 102.294,23.477 102.744,23.733 C103.954,24.275 105.226,23.63 106.194,22.855 C107.64,21.863 109.212,14.986 109.902,13.467 L113.215,13.467 L110.458,22.045 L110.319,22.425 C110.272,22.795 110.347,23.171 110.533,23.496 C110.963,24.221 112.863,23.835 113.571,23.927 L112.497,27.077 C110.812,27.262 109.135,26.674 107.947,25.481 C106.29,26.738 104.031,27.501 101.989,26.828 C100.886,26.508 100.109,25.608 99.378,24.821 L98.65,27.08 L85.913,27.08 L85.913,23.927 C86.964,23.883 88.825,24.084 89.796,23.656 C91.789,22.954 94.071,20.912 94.003,18.736 C94.003,17.778 93.566,17.319 93.191,17.092 C90.825,15.723 88.268,17.902 86.508,19.68 C85.327,21.011 84.277,22.45 83.372,23.978 C81.314,26.85 78.735,36.621 77.482,40 L74.444,39.017 L74.444,39.017 Z M67.8569698,22.143 C70.924,20.435 73.715,18.625 75,15.718 C72.1,15.648 70.378,16.712 68.983,18.625 C68.247,19.651 67.853,20.882 67.8569698,22.143 Z M7.388,38.1 C10.133,34.535 12.249,30.585 14.213,26.59 C12.872,27.116 11.342,27.827 9.893,28.148 C4.147,29.273 -0.545,26.94 0.051,20.57 C0.544,12.453 12.511,1.16 20.487,0.102 C23.728,-0.538 27.231,1.906 26.266,5.362 C24.969,9.724 21.404,12.905 17.927,15.932 L15.879,13.514 C18.64,11.172 22.859,7.328 23.209,3.888 C21.288,1.864 17.982,4.042 16.031,5.096 C10.775,8.264 5.185,13.414 3.51,19.407 C3.121,20.781 3.017,22.341 3.585,23.664 C4.152,24.987 5.983,25.311 7.295,25.317 C10.899,25.368 13.971,22.911 16.541,20.657 L16.784,20.538 C16.992,19.981 17.173,19.391 17.41,18.85 L20.417,19.977 C17.567,27.04 14.625,33.978 9.906,40 L7.388,38.1 Z M118.545,27.142 C115.555,27.072 113.495,24.939 113.595,22.048 C113.109,21.144 120.178,1.288 120.449,-0.001 L123.781,-0.001 L116.946,20.819 C116.886,20.969 116.846,21.125 116.824,21.284 L116.824,21.316 L116.782,21.431 C116.795,21.491 116.795,21.552 116.782,21.612 C116.721,21.692 116.76,22.019 116.747,22.112 C116.747,24.592 119.827,24.226 121.257,22.914 C121.992,22.325 122.604,21.601 123.059,20.781 C123.795,19.672 123.882,18.261 123.288,17.072 C122.681,16.049 122.598,14.802 123.065,13.71 L126.11,14.666 L125.936,15.28 L130.924,15.28 L135.957,2.16840434e-19 L139.286,2.16840434e-19 L131.4,23.953 L136.046,23.953 L135.022,27.095 C132.26,26.993 128.432,27.932 128.22,24.023 C128.152,23.208 129.67,19.302 129.87,18.464 L126.902,18.464 C126.841,22.546 122.881,27.162 118.544,27.1430585 L118.545,27.142 Z M41.553,27.131 C38.083,26.94 35.716,24.325 35.716,20.881 C35.564,13.728 45.896,9.454 49.012,16.991 L50.134,16.991 L51.911,11.428 L54.953,12.4 L54.613,13.297 L64.286,13.297 L64.286,16.537 L62.989,16.537 C61.468,17.653 59.785,19.642 58.773,21.279 C58.212,22.16 58.011,22.857 58.565,23.628 C59.094,24.215 63.089,23.816 63.815,23.926 L62.785,27.125 C61.228,27.053 58.523,27.403 57.145,26.551 C56.099,25.991 55.378,24.972 55.199,23.8 C54.602,21.14 56.558,18.557 58.024,16.538 C57.444,16.57 55.598,16.444 55.073,16.671 C53.523,17.151 52.718,18.913 52.511,20.326 L49.356,20.326 C48.807,23.891 45.341,27.361 41.553,27.131 Z M39.323,20.414 C39.057,21.977 40.269,23.636 42.112,23.568 C44.134,23.599 45.645,21.938 46.429,20.383 C43.716,20.075 42.792,18.918 42.693,16.428 C41.053,17.222 39.478,18.601 39.323,20.414 Z M25.193,27.129 C18.873,26.989 21.827,18.581 24.563,15.856 C26.888,13.386 30.578,11.721 33.522,13.793 C34.72,14.603 34.944,16.237 34.409,17.576 C33.556,20.205 30.487,22.264 28.118,23.981 L35.714,23.981 L34.674,27.141 L25.193,27.129 Z M25.121,22.142 C26.58,21.255 28.556,19.935 29.411,19.019 C30.22,18.222 31.391,16.336 31.391,16.336 C31.446,16.219 31.441,16.079 31.377,15.966 C31.313,15.854 31.2,15.785 31.077,15.784 C29.797,15.04 24.104,20.382 25.121,22.142 Z M148.821,27.112 C146.606,27.134 145.652,25.921 144.631,24.159 L143.664,27.111 C142.13,26.976 138.765,27.611 137.695,26.221 C137.212,25.75 136.728,24.521 136.429,23.926 L136.706,23.926 C136.783,23.542 139.845,13.976 140.045,13.349 L143.441,13.349 L140.057,23.926 L144.869,23.926 C144.573,18.644 149.703,12.407 155.224,12.882 C157.122,13.075 158.592,14.347 158.563,16.322 C158.563,16.699 158.411,17.86 158.366,18.257 L155.144,18.257 L155.379,15.934 C152.504,15.782 149.945,18.183 148.785,20.622 C148.68,20.96 148.538,21.285 148.359,21.59 C148.159,22.236 147.931,22.881 147.989,23.5 C148.203,23.742 148.499,23.894 148.82,23.926 L179.286,23.926 L178.226,27.111 L148.82,27.111 L148.821,27.112 Z M143.916,8.57 C140.598,8.496 140.598,3.642 143.916,3.57 C147.26,3.616 147.27,8.528 143.916,8.57 Z" id="Shape"></path>
        </g>
    </g>
</svg>