<?xml version="1.0" standalone="no"?>
<!DOCTYPE svg PUBLIC "-//W3C//DTD SVG 20010904//EN"
 "http://www.w3.org/TR/2001/REC-SVG-20010904/DTD/svg10.dtd">
<svg version="1.0" xmlns="http://www.w3.org/2000/svg"
 width="270.000000pt" height="270.000000pt" viewBox="0 0 270.000000 270.000000"
 preserveAspectRatio="xMidYMid meet">
<metadata>
Created by potrace 1.11, written by Peter Selinger 2001-2013
</metadata>
<g transform="translate(0.000000,270.000000) scale(0.100000,-0.100000)"
fill="#000000" stroke="none">
<path d="M1217 2684 c-2 -2 -24 -6 -49 -9 -103 -12 -263 -57 -330 -91 -15 -8
-31 -15 -35 -16 -11 -1 -77 -32 -83 -38 -3 -3 -21 -14 -40 -24 -103 -56 -254
-182 -353 -295 -51 -58 -137 -194 -182 -287 -41 -86 -96 -250 -109 -325 -41
-245 -17 -520 63 -724 139 -354 428 -646 766 -773 116 -44 144 -52 258 -72
199 -37 466 -18 652 45 336 115 610 351 773 668 28 53 49 97 47 97 -2 0 5 20
16 45 11 25 22 54 24 63 2 9 11 46 20 82 9 36 18 76 20 90 15 117 18 168 17
253 -1 98 -3 121 -22 227 -20 114 -85 297 -132 375 -10 17 -22 39 -27 50 -16
37 -125 183 -176 237 -65 69 -154 144 -230 196 -63 42 -216 125 -250 134 -11
4 -45 15 -76 27 -31 11 -67 22 -80 25 -13 3 -35 8 -49 11 -86 20 -152 27 -282
30 -81 1 -149 1 -151 -1z"/>
</g>
</svg>
